<?xml version="1.0" standalone="no"?>
<!DOCTYPE svg PUBLIC "-//W3C//DTD SVG 20010904//EN"
 "http://www.w3.org/TR/2001/REC-SVG-20010904/DTD/svg10.dtd">
<svg version="1.0" xmlns="http://www.w3.org/2000/svg"
 width="700.000000pt" height="700.000000pt" viewBox="0 0 700.000000 700.000000"
 preserveAspectRatio="xMidYMid meet">
<metadata>
Created by potrace 1.14, written by Peter Selinger 2001-2017
</metadata>
<g transform="translate(0.000000,700.000000) scale(0.100000,-0.100000)"
fill="#000000" stroke="none">
<path d="M3160 6859 c-36 -4 -87 -11 -114 -14 -28 -3 -59 -8 -70 -10 -12 -2
-37 -7 -56 -9 -252 -35 -644 -163 -915 -298 -110 -55 -323 -174 -335 -187 -3
-4 -36 -27 -75 -52 -294 -193 -592 -482 -840 -814 -185 -247 -370 -609 -473
-925 -40 -120 -95 -326 -107 -400 -7 -44 -14 -79 -19 -105 -2 -11 -7 -45 -11
-75 -4 -30 -9 -63 -11 -73 -25 -136 -25 -624 1 -817 13 -99 19 -137 32 -210
20 -113 18 -101 48 -220 116 -457 320 -870 622 -1261 159 -206 486 -517 700
-666 291 -202 575 -347 878 -448 118 -39 321 -95 400 -109 88 -17 205 -36 240
-41 22 -3 67 -8 100 -12 78 -10 600 -10 685 0 36 4 85 9 110 12 81 10 313 56
410 82 619 163 1197 510 1620 970 91 99 113 124 178 206 332 418 569 932 667
1445 2 13 6 31 9 40 3 9 8 37 11 62 6 53 16 117 21 145 25 132 25 689 0 821
-2 10 -7 44 -11 74 -4 30 -9 64 -11 75 -2 11 -7 34 -9 50 -12 66 -35 173 -51
230 -8 33 -17 68 -19 78 -12 56 -114 337 -162 446 -56 128 -141 294 -175 343
-10 14 -18 29 -18 33 0 11 -164 252 -218 320 -4 6 -23 30 -42 55 -19 25 -37
47 -40 50 -3 3 -36 41 -75 84 -267 303 -592 559 -948 747 -72 38 -133 70 -134
70 -2 0 -37 15 -78 34 -42 19 -79 35 -82 35 -3 0 -19 7 -36 15 -60 28 -335
118 -412 135 -22 5 -71 16 -110 25 -104 24 -204 42 -290 51 -22 3 -53 7 -70
11 -48 9 -644 12 -715 2z"/>
</g>
</svg>
